[CENTER][IMG]http://i126.photobucket.com/albums/p102/tebugg/81vezDBWOyL_AA1297_.jpg[/IMG]

General
Complete name                    : F:\Outrage Born In Terror 2009 Xvid AC3-TeBuGG.avi
Format                           : AVI
Format/Info                      : Audio Video Interleave
Format profile                   : OpenDML
File size                        : 1.49 GiB
Duration                         : 1h 27mn
Overall bit rate                 : 2 453 Kbps
Writing application              : AVI-Mux GUI 1.17.8.3, Feb 16 201019:42:50

Video
ID                               : 0
Format                           : MPEG-4 Visual
Format profile                   : Advanced Simple@L5
Format settings, BVOP            : Yes
Format settings, QPel            : No
Format settings, GMC             : No warppoints
Format settings, Matrix          : Default (MPEG)
Codec ID                         : XVID
Codec ID/Hint                    : XviD
Duration                         : 1h 27mn
Bit rate                         : 2 000 Kbps
Width                            : 720 pixels
Height                           : 480 pixels
Display aspect ratio             : 16:9
Frame rate                       : 23.976 fps
Standard                         : NTSC
Color space                      : YUV
Chroma subsampling               : 4:2:0
Bit depth                        : 8 bits
Scan type                        : Progressive
Bits/(Pixel*Frame)               : 0.241
Stream size                      : 1.22 GiB (82%)
Writing library                  : XviD 1.2.1 (UTC 2008-12-04)

Audio
ID                               : 1
Format                           : AC-3
Format/Info                      : Audio Coding 3
Mode extension                   : CM (complete main)
Codec ID                         : 2000
Duration                         : 1h 27mn
Bit rate mode                    : Constant
Bit rate                         : 448 Kbps
Channel(s)                       : 6 channels
Channel positions                : Front: L C R, Side: L R, LFE
Sampling rate                    : 48.0 KHz
Bit depth                        : 16 bits
Stream size                      : 279 MiB (18%)
Alignment                        : Aligned on interleaves
Interleave, duration             : 64 ms (1.53 video frames)
Interleave, preload duration     : 192 ms
Title                            : VTS_08_1 T80 3_2ch 448Kbps DELAY 0ms

Actors: Michael Madsen, Michael Berryman, Natasha Lyonne, Pauly D
Directors: Ace Cruz
Language: English
Rated: R (Restricted)
Studio: Phase 4 Films
DVD Release Date: September 14, 2010
Run Time: 89 minutes

[IMG]http://i126.photobucket.com/albums/p102/tebugg/thumbs20100917073643.jpg[/IMG][/CENTER]